<svg width="21" height="21" viewBox="0 0 21 21" fill="none" xmlns="http://www.w3.org/2000/svg">
<path d="M17.9345 3.81562C15.8949 1.77849 13.0045 0.603703 9.82622 0.928644C5.23403 1.39106 1.45517 5.11538 0.942148 9.70204C0.253946 15.7634 4.94624 20.875 10.8648 20.875C14.8564 20.875 18.2849 18.5379 19.8865 15.176C20.2869 14.3387 19.6863 13.3764 18.7603 13.3764C18.2974 13.3764 17.8594 13.6263 17.6592 14.0387C16.2453 17.0757 12.8543 19.0003 9.15053 18.1755C6.37269 17.5631 4.13291 15.301 3.54481 12.5265C2.49373 7.67741 6.185 3.3782 10.8648 3.3782C12.9419 3.3782 14.7938 4.24054 16.1452 5.60279L14.2557 7.48995C13.4674 8.2773 14.018 9.62705 15.1316 9.62705H19.6237C20.3119 9.62705 20.875 9.06466 20.875 8.37728V3.8906C20.875 2.77831 19.5236 2.21591 18.7353 3.00326L17.9345 3.81562Z" fill="#4B4B4B"/>
</svg>
